<mxfile host="app.diagrams.net" modified="2024-04-01T09:46:14.938Z" agent="Mozilla/5.0 (X11; Ubuntu; Linux x86_64; rv:123.0) Gecko/20100101 Firefox/123.0" etag="yjllpUK3v-OEh184kWeb" version="24.2.1" type="github">
  <diagram id="C5RBs43oDa-KdzZeNtuy" name="Page-1">
    <mxGraphModel dx="1364" dy="795" grid="1" gridSize="10" guides="1" tooltips="1" connect="1" arrows="1" fold="1" page="1" pageScale="1" pageWidth="827" pageHeight="1169" math="0" shadow="0">
      <root>
        <mxCell id="WIyWlLk6GJQsqaUBKTNV-0" />
        <mxCell id="WIyWlLk6GJQsqaUBKTNV-1" parent="WIyWlLk6GJQsqaUBKTNV-0" />
        <mxCell id="WIyWlLk6GJQsqaUBKTNV-2" value="" style="rounded=0;html=1;jettySize=auto;orthogonalLoop=1;fontSize=11;endArrow=block;endFill=0;endSize=8;strokeWidth=1;shadow=0;labelBackgroundColor=none;edgeStyle=orthogonalEdgeStyle;" parent="WIyWlLk6GJQsqaUBKTNV-1" source="WIyWlLk6GJQsqaUBKTNV-3" target="WIyWlLk6GJQsqaUBKTNV-6" edge="1">
          <mxGeometry relative="1" as="geometry" />
        </mxCell>
        <mxCell id="WIyWlLk6GJQsqaUBKTNV-3" value="format != &#39;\0&#39;" style="rounded=1;whiteSpace=wrap;html=1;fontSize=12;glass=0;strokeWidth=1;shadow=0;" parent="WIyWlLk6GJQsqaUBKTNV-1" vertex="1">
          <mxGeometry x="260" y="230" width="120" height="40" as="geometry" />
        </mxCell>
        <mxCell id="WIyWlLk6GJQsqaUBKTNV-5" value="No" style="edgeStyle=orthogonalEdgeStyle;rounded=0;html=1;jettySize=auto;orthogonalLoop=1;fontSize=11;endArrow=block;endFill=0;endSize=8;strokeWidth=1;shadow=0;labelBackgroundColor=none;" parent="WIyWlLk6GJQsqaUBKTNV-1" source="WIyWlLk6GJQsqaUBKTNV-6" target="WIyWlLk6GJQsqaUBKTNV-7" edge="1">
          <mxGeometry y="10" relative="1" as="geometry">
            <mxPoint as="offset" />
          </mxGeometry>
        </mxCell>
        <mxCell id="yneq4saJphe_76IgXaTG-5" style="edgeStyle=orthogonalEdgeStyle;rounded=0;orthogonalLoop=1;jettySize=auto;html=1;exitX=0.5;exitY=1;exitDx=0;exitDy=0;entryX=0.5;entryY=0;entryDx=0;entryDy=0;" edge="1" parent="WIyWlLk6GJQsqaUBKTNV-1" source="WIyWlLk6GJQsqaUBKTNV-6" target="yneq4saJphe_76IgXaTG-2">
          <mxGeometry relative="1" as="geometry" />
        </mxCell>
        <mxCell id="WIyWlLk6GJQsqaUBKTNV-6" value="&lt;br&gt;&lt;div&gt;*format&lt;/div&gt;&lt;div&gt;== &#39;%&#39;&lt;br&gt;&lt;/div&gt;" style="rhombus;whiteSpace=wrap;html=1;shadow=0;fontFamily=Helvetica;fontSize=12;align=center;strokeWidth=1;spacing=6;spacingTop=-4;" parent="WIyWlLk6GJQsqaUBKTNV-1" vertex="1">
          <mxGeometry x="270" y="310" width="100" height="80" as="geometry" />
        </mxCell>
        <mxCell id="yneq4saJphe_76IgXaTG-32" style="edgeStyle=orthogonalEdgeStyle;rounded=0;orthogonalLoop=1;jettySize=auto;html=1;exitX=1;exitY=0.5;exitDx=0;exitDy=0;entryX=0.5;entryY=0;entryDx=0;entryDy=0;" edge="1" parent="WIyWlLk6GJQsqaUBKTNV-1" source="WIyWlLk6GJQsqaUBKTNV-7" target="yneq4saJphe_76IgXaTG-27">
          <mxGeometry relative="1" as="geometry">
            <mxPoint x="770" y="1098" as="targetPoint" />
            <Array as="points">
              <mxPoint x="770" y="350" />
              <mxPoint x="770" y="1080" />
            </Array>
          </mxGeometry>
        </mxCell>
        <mxCell id="WIyWlLk6GJQsqaUBKTNV-7" value="print format" style="rounded=1;whiteSpace=wrap;html=1;fontSize=12;glass=0;strokeWidth=1;shadow=0;" parent="WIyWlLk6GJQsqaUBKTNV-1" vertex="1">
          <mxGeometry x="520" y="330" width="120" height="40" as="geometry" />
        </mxCell>
        <mxCell id="yneq4saJphe_76IgXaTG-0" value="start" style="ellipse;whiteSpace=wrap;html=1;" vertex="1" parent="WIyWlLk6GJQsqaUBKTNV-1">
          <mxGeometry x="260" y="20" width="120" height="80" as="geometry" />
        </mxCell>
        <mxCell id="yneq4saJphe_76IgXaTG-1" value="format" style="shape=parallelogram;perimeter=parallelogramPerimeter;whiteSpace=wrap;html=1;fixedSize=1;" vertex="1" parent="WIyWlLk6GJQsqaUBKTNV-1">
          <mxGeometry x="260" y="140" width="120" height="60" as="geometry" />
        </mxCell>
        <mxCell id="yneq4saJphe_76IgXaTG-26" style="edgeStyle=orthogonalEdgeStyle;rounded=0;orthogonalLoop=1;jettySize=auto;html=1;exitX=0.5;exitY=1;exitDx=0;exitDy=0;entryX=0.5;entryY=0;entryDx=0;entryDy=0;" edge="1" parent="WIyWlLk6GJQsqaUBKTNV-1" source="yneq4saJphe_76IgXaTG-2" target="yneq4saJphe_76IgXaTG-3">
          <mxGeometry relative="1" as="geometry" />
        </mxCell>
        <mxCell id="yneq4saJphe_76IgXaTG-2" value="format ++" style="rounded=1;whiteSpace=wrap;html=1;" vertex="1" parent="WIyWlLk6GJQsqaUBKTNV-1">
          <mxGeometry x="70" y="400" width="150" height="40" as="geometry" />
        </mxCell>
        <mxCell id="yneq4saJphe_76IgXaTG-3" value="&lt;div&gt;format&lt;/div&gt;&lt;div&gt;== &#39;\0&#39;&lt;br&gt;&lt;/div&gt;" style="rhombus;whiteSpace=wrap;html=1;" vertex="1" parent="WIyWlLk6GJQsqaUBKTNV-1">
          <mxGeometry x="260" y="440" width="120" height="80" as="geometry" />
        </mxCell>
        <mxCell id="yneq4saJphe_76IgXaTG-33" style="edgeStyle=orthogonalEdgeStyle;rounded=0;orthogonalLoop=1;jettySize=auto;html=1;exitX=1;exitY=0.5;exitDx=0;exitDy=0;entryX=0.5;entryY=0;entryDx=0;entryDy=0;" edge="1" parent="WIyWlLk6GJQsqaUBKTNV-1" source="yneq4saJphe_76IgXaTG-9" target="yneq4saJphe_76IgXaTG-27">
          <mxGeometry relative="1" as="geometry">
            <Array as="points">
              <mxPoint x="770" y="480" />
              <mxPoint x="770" y="1070" />
            </Array>
          </mxGeometry>
        </mxCell>
        <mxCell id="yneq4saJphe_76IgXaTG-9" value="print %" style="rounded=1;whiteSpace=wrap;html=1;" vertex="1" parent="WIyWlLk6GJQsqaUBKTNV-1">
          <mxGeometry x="460" y="455" width="180" height="50" as="geometry" />
        </mxCell>
        <mxCell id="yneq4saJphe_76IgXaTG-10" value="" style="endArrow=classic;html=1;rounded=0;exitX=1;exitY=0.5;exitDx=0;exitDy=0;entryX=0;entryY=0.5;entryDx=0;entryDy=0;" edge="1" parent="WIyWlLk6GJQsqaUBKTNV-1" source="yneq4saJphe_76IgXaTG-3" target="yneq4saJphe_76IgXaTG-9">
          <mxGeometry width="50" height="50" relative="1" as="geometry">
            <mxPoint x="390" y="620" as="sourcePoint" />
            <mxPoint x="440" y="570" as="targetPoint" />
          </mxGeometry>
        </mxCell>
        <mxCell id="yneq4saJphe_76IgXaTG-11" value="Yes" style="text;html=1;align=center;verticalAlign=middle;whiteSpace=wrap;rounded=0;" vertex="1" parent="WIyWlLk6GJQsqaUBKTNV-1">
          <mxGeometry x="440" y="450" width="60" height="30" as="geometry" />
        </mxCell>
        <mxCell id="yneq4saJphe_76IgXaTG-13" value="" style="endArrow=classic;html=1;rounded=0;exitX=0.5;exitY=1;exitDx=0;exitDy=0;entryX=0.5;entryY=0;entryDx=0;entryDy=0;" edge="1" parent="WIyWlLk6GJQsqaUBKTNV-1" source="yneq4saJphe_76IgXaTG-3" target="yneq4saJphe_76IgXaTG-28">
          <mxGeometry width="50" height="50" relative="1" as="geometry">
            <mxPoint x="390" y="650" as="sourcePoint" />
            <mxPoint x="320" y="600" as="targetPoint" />
          </mxGeometry>
        </mxCell>
        <mxCell id="yneq4saJphe_76IgXaTG-14" value="No" style="text;html=1;align=center;verticalAlign=middle;whiteSpace=wrap;rounded=0;" vertex="1" parent="WIyWlLk6GJQsqaUBKTNV-1">
          <mxGeometry x="320" y="540" width="60" height="30" as="geometry" />
        </mxCell>
        <mxCell id="yneq4saJphe_76IgXaTG-15" value="" style="endArrow=classic;html=1;rounded=0;exitX=0.5;exitY=1;exitDx=0;exitDy=0;entryX=0.5;entryY=0;entryDx=0;entryDy=0;" edge="1" parent="WIyWlLk6GJQsqaUBKTNV-1" source="yneq4saJphe_76IgXaTG-1" target="WIyWlLk6GJQsqaUBKTNV-3">
          <mxGeometry width="50" height="50" relative="1" as="geometry">
            <mxPoint x="390" y="530" as="sourcePoint" />
            <mxPoint x="440" y="480" as="targetPoint" />
          </mxGeometry>
        </mxCell>
        <mxCell id="yneq4saJphe_76IgXaTG-16" value="" style="endArrow=classic;html=1;rounded=0;exitX=0.5;exitY=1;exitDx=0;exitDy=0;entryX=0.5;entryY=0;entryDx=0;entryDy=0;" edge="1" parent="WIyWlLk6GJQsqaUBKTNV-1" source="yneq4saJphe_76IgXaTG-0" target="yneq4saJphe_76IgXaTG-1">
          <mxGeometry width="50" height="50" relative="1" as="geometry">
            <mxPoint x="390" y="470" as="sourcePoint" />
            <mxPoint x="440" y="420" as="targetPoint" />
          </mxGeometry>
        </mxCell>
        <mxCell id="yneq4saJphe_76IgXaTG-17" value="&#39;c&#39;==&amp;gt; print character" style="rounded=1;whiteSpace=wrap;html=1;" vertex="1" parent="WIyWlLk6GJQsqaUBKTNV-1">
          <mxGeometry x="490" y="610" width="195" height="30" as="geometry" />
        </mxCell>
        <mxCell id="yneq4saJphe_76IgXaTG-39" style="edgeStyle=orthogonalEdgeStyle;rounded=0;orthogonalLoop=1;jettySize=auto;html=1;exitX=1;exitY=0.5;exitDx=0;exitDy=0;entryX=0.5;entryY=0;entryDx=0;entryDy=0;" edge="1" parent="WIyWlLk6GJQsqaUBKTNV-1" source="yneq4saJphe_76IgXaTG-18" target="yneq4saJphe_76IgXaTG-27">
          <mxGeometry relative="1" as="geometry" />
        </mxCell>
        <mxCell id="yneq4saJphe_76IgXaTG-18" value="&#39;s&#39; ==&amp;gt; print string" style="rounded=1;whiteSpace=wrap;html=1;" vertex="1" parent="WIyWlLk6GJQsqaUBKTNV-1">
          <mxGeometry x="490" y="660" width="195" height="40" as="geometry" />
        </mxCell>
        <mxCell id="yneq4saJphe_76IgXaTG-40" style="edgeStyle=orthogonalEdgeStyle;rounded=0;orthogonalLoop=1;jettySize=auto;html=1;exitX=1;exitY=0.5;exitDx=0;exitDy=0;" edge="1" parent="WIyWlLk6GJQsqaUBKTNV-1" source="yneq4saJphe_76IgXaTG-20">
          <mxGeometry relative="1" as="geometry">
            <mxPoint x="770" y="1110" as="targetPoint" />
          </mxGeometry>
        </mxCell>
        <mxCell id="yneq4saJphe_76IgXaTG-20" value="&#39;d&#39; || &#39;i&#39; ==&amp;gt; print decimal" style="rounded=1;whiteSpace=wrap;html=1;" vertex="1" parent="WIyWlLk6GJQsqaUBKTNV-1">
          <mxGeometry x="490" y="720" width="195" height="30" as="geometry" />
        </mxCell>
        <mxCell id="yneq4saJphe_76IgXaTG-41" style="edgeStyle=orthogonalEdgeStyle;rounded=0;orthogonalLoop=1;jettySize=auto;html=1;exitX=1;exitY=0.5;exitDx=0;exitDy=0;" edge="1" parent="WIyWlLk6GJQsqaUBKTNV-1" source="yneq4saJphe_76IgXaTG-21">
          <mxGeometry relative="1" as="geometry">
            <mxPoint x="770" y="1110" as="targetPoint" />
          </mxGeometry>
        </mxCell>
        <mxCell id="yneq4saJphe_76IgXaTG-21" value="&#39;u&#39; ==&amp;gt; print unsigned" style="rounded=1;whiteSpace=wrap;html=1;" vertex="1" parent="WIyWlLk6GJQsqaUBKTNV-1">
          <mxGeometry x="490" y="780" width="195" height="30" as="geometry" />
        </mxCell>
        <mxCell id="yneq4saJphe_76IgXaTG-42" style="edgeStyle=orthogonalEdgeStyle;rounded=0;orthogonalLoop=1;jettySize=auto;html=1;exitX=1;exitY=0.5;exitDx=0;exitDy=0;" edge="1" parent="WIyWlLk6GJQsqaUBKTNV-1" source="yneq4saJphe_76IgXaTG-22" target="yneq4saJphe_76IgXaTG-27">
          <mxGeometry relative="1" as="geometry" />
        </mxCell>
        <mxCell id="yneq4saJphe_76IgXaTG-22" value="&#39;x&#39; ==&amp;gt; print hex_lower" style="rounded=1;whiteSpace=wrap;html=1;" vertex="1" parent="WIyWlLk6GJQsqaUBKTNV-1">
          <mxGeometry x="490" y="840" width="195" height="30" as="geometry" />
        </mxCell>
        <mxCell id="yneq4saJphe_76IgXaTG-43" style="edgeStyle=orthogonalEdgeStyle;rounded=0;orthogonalLoop=1;jettySize=auto;html=1;exitX=1;exitY=0.5;exitDx=0;exitDy=0;" edge="1" parent="WIyWlLk6GJQsqaUBKTNV-1" source="yneq4saJphe_76IgXaTG-23" target="yneq4saJphe_76IgXaTG-27">
          <mxGeometry relative="1" as="geometry" />
        </mxCell>
        <mxCell id="yneq4saJphe_76IgXaTG-23" value="&#39;X&#39; ==&amp;gt; print hex_upper" style="rounded=1;whiteSpace=wrap;html=1;" vertex="1" parent="WIyWlLk6GJQsqaUBKTNV-1">
          <mxGeometry x="490" y="890" width="205" height="30" as="geometry" />
        </mxCell>
        <mxCell id="yneq4saJphe_76IgXaTG-44" style="edgeStyle=orthogonalEdgeStyle;rounded=0;orthogonalLoop=1;jettySize=auto;html=1;exitX=1;exitY=0.5;exitDx=0;exitDy=0;" edge="1" parent="WIyWlLk6GJQsqaUBKTNV-1" source="yneq4saJphe_76IgXaTG-24">
          <mxGeometry relative="1" as="geometry">
            <mxPoint x="770" y="1120" as="targetPoint" />
          </mxGeometry>
        </mxCell>
        <mxCell id="yneq4saJphe_76IgXaTG-24" value="&#39;o&#39; ==&amp;gt; print octal" style="rounded=1;whiteSpace=wrap;html=1;" vertex="1" parent="WIyWlLk6GJQsqaUBKTNV-1">
          <mxGeometry x="490" y="950" width="195" height="30" as="geometry" />
        </mxCell>
        <mxCell id="yneq4saJphe_76IgXaTG-45" style="edgeStyle=orthogonalEdgeStyle;rounded=0;orthogonalLoop=1;jettySize=auto;html=1;exitX=1;exitY=0.5;exitDx=0;exitDy=0;" edge="1" parent="WIyWlLk6GJQsqaUBKTNV-1" source="yneq4saJphe_76IgXaTG-25" target="yneq4saJphe_76IgXaTG-27">
          <mxGeometry relative="1" as="geometry" />
        </mxCell>
        <mxCell id="yneq4saJphe_76IgXaTG-25" value="&#39;%&#39; ==&amp;gt; print percent" style="rounded=1;whiteSpace=wrap;html=1;" vertex="1" parent="WIyWlLk6GJQsqaUBKTNV-1">
          <mxGeometry x="490" y="1010" width="195" height="30" as="geometry" />
        </mxCell>
        <mxCell id="yneq4saJphe_76IgXaTG-27" value="End" style="ellipse;whiteSpace=wrap;html=1;" vertex="1" parent="WIyWlLk6GJQsqaUBKTNV-1">
          <mxGeometry x="710" y="1110" width="120" height="80" as="geometry" />
        </mxCell>
        <mxCell id="yneq4saJphe_76IgXaTG-29" style="edgeStyle=orthogonalEdgeStyle;rounded=0;orthogonalLoop=1;jettySize=auto;html=1;exitX=1;exitY=0.5;exitDx=0;exitDy=0;entryX=0;entryY=0.5;entryDx=0;entryDy=0;" edge="1" parent="WIyWlLk6GJQsqaUBKTNV-1" source="yneq4saJphe_76IgXaTG-28" target="yneq4saJphe_76IgXaTG-17">
          <mxGeometry relative="1" as="geometry" />
        </mxCell>
        <mxCell id="yneq4saJphe_76IgXaTG-31" style="edgeStyle=orthogonalEdgeStyle;rounded=0;orthogonalLoop=1;jettySize=auto;html=1;exitX=0.5;exitY=1;exitDx=0;exitDy=0;entryX=0.5;entryY=0;entryDx=0;entryDy=0;" edge="1" parent="WIyWlLk6GJQsqaUBKTNV-1" source="yneq4saJphe_76IgXaTG-28" target="WIyWlLk6GJQsqaUBKTNV-6">
          <mxGeometry relative="1" as="geometry">
            <Array as="points">
              <mxPoint x="320" y="830" />
              <mxPoint x="40" y="830" />
              <mxPoint x="40" y="290" />
              <mxPoint x="320" y="290" />
            </Array>
          </mxGeometry>
        </mxCell>
        <mxCell id="yneq4saJphe_76IgXaTG-46" style="edgeStyle=orthogonalEdgeStyle;rounded=0;orthogonalLoop=1;jettySize=auto;html=1;exitX=1;exitY=0.5;exitDx=0;exitDy=0;entryX=0;entryY=0.5;entryDx=0;entryDy=0;" edge="1" parent="WIyWlLk6GJQsqaUBKTNV-1" source="yneq4saJphe_76IgXaTG-28" target="yneq4saJphe_76IgXaTG-18">
          <mxGeometry relative="1" as="geometry" />
        </mxCell>
        <mxCell id="yneq4saJphe_76IgXaTG-47" style="edgeStyle=orthogonalEdgeStyle;rounded=0;orthogonalLoop=1;jettySize=auto;html=1;exitX=1;exitY=0.5;exitDx=0;exitDy=0;entryX=0;entryY=0.75;entryDx=0;entryDy=0;" edge="1" parent="WIyWlLk6GJQsqaUBKTNV-1" source="yneq4saJphe_76IgXaTG-28" target="yneq4saJphe_76IgXaTG-20">
          <mxGeometry relative="1" as="geometry" />
        </mxCell>
        <mxCell id="yneq4saJphe_76IgXaTG-48" style="edgeStyle=orthogonalEdgeStyle;rounded=0;orthogonalLoop=1;jettySize=auto;html=1;exitX=1;exitY=0.5;exitDx=0;exitDy=0;entryX=0;entryY=0.5;entryDx=0;entryDy=0;" edge="1" parent="WIyWlLk6GJQsqaUBKTNV-1" source="yneq4saJphe_76IgXaTG-28" target="yneq4saJphe_76IgXaTG-21">
          <mxGeometry relative="1" as="geometry" />
        </mxCell>
        <mxCell id="yneq4saJphe_76IgXaTG-49" style="edgeStyle=orthogonalEdgeStyle;rounded=0;orthogonalLoop=1;jettySize=auto;html=1;exitX=1;exitY=0.5;exitDx=0;exitDy=0;entryX=0;entryY=0.5;entryDx=0;entryDy=0;" edge="1" parent="WIyWlLk6GJQsqaUBKTNV-1" source="yneq4saJphe_76IgXaTG-28" target="yneq4saJphe_76IgXaTG-22">
          <mxGeometry relative="1" as="geometry" />
        </mxCell>
        <mxCell id="yneq4saJphe_76IgXaTG-50" style="edgeStyle=orthogonalEdgeStyle;rounded=0;orthogonalLoop=1;jettySize=auto;html=1;exitX=1;exitY=0.5;exitDx=0;exitDy=0;entryX=0;entryY=0.75;entryDx=0;entryDy=0;" edge="1" parent="WIyWlLk6GJQsqaUBKTNV-1" source="yneq4saJphe_76IgXaTG-28" target="yneq4saJphe_76IgXaTG-23">
          <mxGeometry relative="1" as="geometry" />
        </mxCell>
        <mxCell id="yneq4saJphe_76IgXaTG-51" style="edgeStyle=orthogonalEdgeStyle;rounded=0;orthogonalLoop=1;jettySize=auto;html=1;exitX=1;exitY=0.5;exitDx=0;exitDy=0;entryX=0;entryY=0.25;entryDx=0;entryDy=0;" edge="1" parent="WIyWlLk6GJQsqaUBKTNV-1" source="yneq4saJphe_76IgXaTG-28" target="yneq4saJphe_76IgXaTG-24">
          <mxGeometry relative="1" as="geometry" />
        </mxCell>
        <mxCell id="yneq4saJphe_76IgXaTG-52" style="edgeStyle=orthogonalEdgeStyle;rounded=0;orthogonalLoop=1;jettySize=auto;html=1;exitX=1;exitY=0.5;exitDx=0;exitDy=0;entryX=0;entryY=0.5;entryDx=0;entryDy=0;" edge="1" parent="WIyWlLk6GJQsqaUBKTNV-1" source="yneq4saJphe_76IgXaTG-28" target="yneq4saJphe_76IgXaTG-25">
          <mxGeometry relative="1" as="geometry" />
        </mxCell>
        <mxCell id="yneq4saJphe_76IgXaTG-28" value="&lt;div&gt;format&lt;/div&gt;&lt;div&gt;specifiers&lt;br&gt;&lt;/div&gt;" style="rhombus;whiteSpace=wrap;html=1;" vertex="1" parent="WIyWlLk6GJQsqaUBKTNV-1">
          <mxGeometry x="250" y="710" width="140" height="80" as="geometry" />
        </mxCell>
        <mxCell id="yneq4saJphe_76IgXaTG-36" style="edgeStyle=orthogonalEdgeStyle;rounded=0;orthogonalLoop=1;jettySize=auto;html=1;exitX=1;exitY=0.5;exitDx=0;exitDy=0;entryX=0.5;entryY=0;entryDx=0;entryDy=0;" edge="1" parent="WIyWlLk6GJQsqaUBKTNV-1" source="yneq4saJphe_76IgXaTG-17" target="yneq4saJphe_76IgXaTG-27">
          <mxGeometry relative="1" as="geometry" />
        </mxCell>
      </root>
    </mxGraphModel>
  </diagram>
</mxfile>
